<svg width="812" height="157" viewBox="0 0 812 157" fill="none" xmlns="http://www.w3.org/2000/svg">
<path d="M628.018 9.75C625.994 9.75 623.991 9.832 622.007 9.995H634.028C632.045 9.834 630.042 9.753 628.018 9.75Z" fill="#1D1D1B"/>
<path d="M682.97 34.51C682.57 35.022 682.187 35.544 681.801 36.066C682.208 35.575 682.626 35.085 683.054 34.604C683.022 34.57 683.001 34.539 682.97 34.51ZM681.77 130.166C682.17 130.698 682.563 131.231 682.97 131.753C683.001 131.722 683.022 131.69 683.054 131.659C682.615 131.166 682.187 130.665 681.769 130.163L681.77 130.166ZM677.187 28.493C665.212 17.769 650.05 11.269 634.026 9.99298H622.008C584.297 13.022 554.635 44.293 554.635 82.422C554.635 120.551 584.307 151.842 622.035 154.851H633.989C650.026 153.591 665.204 147.09 677.182 136.351C664.916 121.052 658.232 102.028 658.232 82.419C658.232 62.811 664.916 43.787 677.182 28.488L677.187 28.493ZM651.638 112.355C648.412 114.847 644.194 116.429 639.015 117.122V131.887H630.548V117.546H618.5V131.887H610.028V117.546H597.66V109.099L605.219 107.651V57.183L597.66 55.735V47.235H610.028V32.955H618.495V47.235H629.207C629.635 47.235 630.032 47.256 630.449 47.266H630.543V32.957H639.01V48.167C642.488 48.803 645.803 50.129 648.761 52.067C653.438 55.283 655.777 60.094 655.777 66.501C655.824 69.606 654.913 72.649 653.167 75.217C651.3 77.883 648.652 79.903 645.587 80.997C649.405 81.628 652.836 83.701 655.171 86.787C655.883 87.767 656.482 88.826 656.956 89.941C657.089 90.231 657.208 90.528 657.311 90.83C658.025 92.834 658.382 94.948 658.365 97.075C658.396 99.516 658.04 101.946 657.311 104.275C656.977 105.344 656.529 106.373 655.975 107.346C654.891 109.298 653.414 111.003 651.638 112.355ZM681.769 130.163C682.169 130.695 682.562 131.228 682.969 131.75C683 131.719 683.021 131.687 683.053 131.656C682.615 131.166 682.187 130.665 681.769 130.163Z" fill="white"/>
<path d="M811.471 83.129C811.471 101.555 804.538 119.307 792.051 132.857C779.564 146.407 762.436 154.763 744.071 156.265H732.113C713.186 154.74 695.593 145.915 683.053 131.657C684.577 129.934 686.029 128.128 687.386 126.257C696.214 136.648 708.019 144.079 721.205 147.547C734.392 151.015 748.325 150.353 761.123 145.65C773.921 140.948 784.968 132.431 792.771 121.249C800.575 110.068 804.759 96.762 804.759 83.127C804.759 69.492 800.575 56.186 792.771 45.005C784.968 33.823 773.921 25.306 761.123 20.604C748.325 15.901 734.392 15.239 721.205 18.707C708.019 22.175 696.214 29.606 687.386 39.997C686.029 38.128 684.578 36.332 683.053 34.597C695.59 20.351 713.167 11.529 732.082 9.98901H744.099C762.459 11.498 779.581 19.858 792.062 33.408C804.543 46.958 811.472 64.707 811.471 83.129Z" fill="white"/>
<path d="M738.092 9.75C736.067 9.75 734.064 9.832 732.082 9.995H744.101C742.118 9.834 740.115 9.753 738.092 9.75Z" fill="white"/>
<path d="M666.338 83.129C666.323 100.054 671.732 116.538 681.772 130.163C670.745 116.963 664.706 100.308 664.712 83.107C664.718 65.907 670.767 49.256 681.803 36.063C671.745 49.693 666.325 66.19 666.338 83.129Z" fill="white"/>
<path d="M657.314 25.079H587.687V137.984H657.314V25.079Z" fill="white"/>
<path d="M628.017 156.511C630.031 156.511 632.025 156.426 633.998 156.268H622.036C624.009 156.427 626.003 156.511 628.017 156.511Z" fill="#1D1D1B"/>
<path d="M687.387 126.257C696.493 113.721 701.397 98.625 701.397 83.131C701.397 67.637 696.493 52.541 687.387 40.005C677.121 52.029 671.481 67.321 671.481 83.131C671.481 98.941 677.121 114.233 687.387 126.257Z" fill="white"/>
<path d="M633.649 87.194H619.463V107.673H632.579C636.35 107.673 639.227 106.852 641.209 105.211C643.191 103.57 644.182 101.14 644.184 97.921C644.184 94.442 643.339 91.785 641.649 89.948C639.959 88.111 637.292 87.193 633.649 87.194Z" fill="white"/>
<path d="M638.476 75.0031C639.502 74.1991 640.318 73.157 640.853 71.968C641.388 70.779 641.626 69.478 641.548 68.176C641.548 64.893 640.514 62.472 638.448 60.912C636.381 59.352 633.301 58.572 629.208 58.571H619.463V77.344H629.702C633.503 77.344 636.428 76.5641 638.476 75.0031Z" fill="white"/>
<path d="M738.09 156.511C740.104 156.511 742.098 156.426 744.07 156.268H732.109C734.082 156.427 736.076 156.511 738.09 156.511Z" fill="white"/>
<path d="M671.485 83.13C671.471 98.943 677.11 114.24 687.385 126.26C686.028 128.129 684.577 129.935 683.052 131.66C682.614 131.169 682.185 130.668 681.768 130.167C670.741 116.967 664.702 100.312 664.708 83.111C664.713 65.911 670.763 49.26 681.799 36.067C682.206 35.576 682.624 35.086 683.052 34.605C684.576 36.338 686.028 38.134 687.385 40.005C677.113 52.025 671.474 67.319 671.485 83.13Z" fill="white"/>
<path d="M659.253 98.41L658.371 94.301L657.822 90.561L654.544 91.161L653.805 108.614L658.371 107.921L659.253 98.41Z" fill="white"/>
<path d="M709.869 34.964L700.169 49.964L729.804 95.787V138.636L746.369 113.017V90.926L709.869 34.964Z" fill="#F97316"/>
<path d="M766.31 34.964L747.882 63.218L757.7 78.271L776.01 49.958L766.31 34.964Z" fill="#F97316"/>
<path d="M646.615 87.535C644.294 84.428 640.865 82.334 637.041 81.688C640.109 80.572 642.757 78.533 644.621 75.852C646.364 73.252 647.274 70.182 647.231 67.052C647.231 60.589 644.889 55.731 640.205 52.477C637.253 50.521 633.936 49.182 630.454 48.541V33.182H621.982V47.632C621.544 47.621 621.105 47.601 620.646 47.601H609.938V33.182H601.471V47.6H589.109V56.182L596.668 57.644V108.604L589.109 110.066V118.596H601.471V133.077H609.938V118.596H621.982V133.077H630.449V118.168C635.012 117.713 639.372 116.052 643.082 113.355C647.56 109.858 649.802 104.714 649.806 97.924C649.876 94.209 648.758 90.57 646.615 87.535ZM610.898 58.573H620.649C624.752 58.573 627.832 59.353 629.889 60.912C631.955 62.467 632.989 64.89 632.989 68.179C633.066 69.48 632.827 70.781 632.293 71.97C631.758 73.159 630.944 74.201 629.919 75.007C627.873 76.563 624.939 77.346 621.139 77.346H610.898V58.573ZM610.898 107.673V87.189H625.087C628.731 87.189 631.397 88.108 633.087 89.945C634.776 91.782 635.622 94.441 635.624 97.922C635.624 101.138 634.632 103.567 632.648 105.209C630.664 106.851 627.789 107.672 624.024 107.673H610.898Z" fill="#F97316"/>
<path d="M84.3 108.75V96.3H100.35V108.75H84.3ZM43.05 145.95C34.95 145.95 27.6 144.45 21 141.45C14.5 138.55 9.35 134.4 5.55 129C1.85 123.7 0 117.65 0 110.85C0 108.75 0.15 106 0.45 102.6C0.85 99.2 1.3 95.4 1.8 91.2C2.4 87 3 82.75 3.6 78.45C4.3 74.15 4.95 70 5.55 66L19.5 68.1C18.4 75 17.4 81.35 16.5 87.15C15.7 92.85 15.05 97.75 14.55 101.85C14.15 105.85 13.95 108.85 13.95 110.85C13.95 115.25 15.15 119.15 17.55 122.55C19.95 125.95 23.35 128.6 27.75 130.5C32.15 132.5 37.25 133.5 43.05 133.5C48.85 133.5 53.75 132.55 57.75 130.65C61.85 128.85 64.95 126.35 67.05 123.15C69.15 119.95 70.2 116.15 70.2 111.75V33.6H84.3V111.75C84.3 118.85 82.45 124.95 78.75 130.05C75.05 135.15 70.1 139.05 63.9 141.75C57.7 144.55 50.75 145.95 43.05 145.95ZM100.35 108.75V96.3C101.65 96.3 102.45 96.85 102.75 97.95C103.15 99.05 103.35 100.55 103.35 102.45C103.35 104.35 103.15 105.9 102.75 107.1C102.45 108.2 101.65 108.75 100.35 108.75ZM35.25 32.25V17.7H49.35V32.25H35.25Z" fill="white"/>
<path d="M186.448 108.75V96.3H202.498V108.75H186.448ZM100.348 108.75V96.3H181.198L172.348 102.9V71.85C172.348 65.25 171.598 60.1 170.098 56.4C168.698 52.7 166.198 50.05 162.598 48.45C158.998 46.85 154.098 46.05 147.898 46.05C143.698 46.05 139.548 46.35 135.448 46.95C131.348 47.55 128.148 48.35 125.848 49.35L134.398 40.95C133.798 43.25 133.198 46.2 132.598 49.8C131.998 53.4 131.498 57.3 131.098 61.5C130.698 65.6 130.498 69.7 130.498 73.8C130.498 77.9 130.698 81.95 131.098 85.95C131.498 89.95 131.948 93.45 132.448 96.45C132.948 99.45 133.348 101.5 133.648 102.6L120.298 106.35C119.898 105.05 119.398 102.8 118.798 99.6C118.298 96.4 117.798 92.55 117.298 88.05C116.898 83.55 116.698 78.8 116.698 73.8C116.698 68.9 116.898 64.15 117.298 59.55C117.798 54.85 118.348 50.6 118.948 46.8C119.648 43 120.298 39.95 120.898 37.65C123.198 36.75 126.748 35.85 131.548 34.95C136.448 34.05 141.898 33.6 147.898 33.6C156.398 33.6 163.498 34.85 169.198 37.35C174.998 39.85 179.298 43.9 182.098 49.5C184.998 55 186.448 62.45 186.448 71.85V108.75H100.348ZM100.348 108.75C99.0477 108.75 98.2477 108.2 97.9477 107.1C97.5477 105.9 97.3477 104.35 97.3477 102.45C97.3477 100.55 97.5477 99.05 97.9477 97.95C98.2477 96.85 99.0477 96.3 100.348 96.3V108.75ZM202.498 108.75V96.3C203.798 96.3 204.598 96.85 204.898 97.95C205.298 99.05 205.498 100.55 205.498 102.45C205.498 104.35 205.298 105.9 204.898 107.1C204.598 108.2 203.798 108.75 202.498 108.75Z" fill="white"/>
<path d="M202.447 108.75V96.3H227.947L220.747 102V33.6H234.697V108.75H202.447ZM202.447 108.75C201.147 108.75 200.347 108.2 200.047 107.1C199.647 105.9 199.447 104.35 199.447 102.45C199.447 100.55 199.647 99.05 200.047 97.95C200.347 96.85 201.147 96.3 202.447 96.3V108.75ZM208.447 136.95V122.4H222.547V136.95H208.447ZM228.997 136.95V122.4H243.097V136.95H228.997Z" fill="white"/>
<path d="M318.839 108.75V96.3H334.889V108.75H318.839ZM281.939 143.1C278.339 143.1 274.539 142.8 270.539 142.2C266.639 141.7 262.339 140.95 257.639 139.95L259.739 128.7C265.039 129.3 269.439 129.75 272.939 130.05C276.439 130.35 279.439 130.5 281.939 130.5C289.939 130.5 295.739 129 299.339 126C303.039 123 304.889 118.65 304.889 112.95V42.45L310.589 46.2H287.039C281.739 46.2 277.589 46.85 274.589 48.15C271.589 49.35 269.489 51.8 268.289 55.5C267.089 59.1 266.489 64.4 266.489 71.4C266.489 78.3 267.089 83.55 268.289 87.15C269.489 90.65 271.539 93.05 274.439 94.35C277.439 95.65 281.639 96.3 287.039 96.3H304.889V108.75H287.039C278.339 108.75 271.489 107.45 266.489 104.85C261.489 102.15 257.889 98.05 255.689 92.55C253.589 86.95 252.539 79.9 252.539 71.4C252.539 62.8 253.589 55.7 255.689 50.1C257.889 44.5 261.489 40.35 266.489 37.65C271.489 34.95 278.339 33.6 287.039 33.6H318.839V112.8C318.839 119.2 317.339 124.65 314.339 129.15C311.339 133.75 307.089 137.2 301.589 139.5C296.089 141.9 289.539 143.1 281.939 143.1ZM334.889 108.75V96.3C336.189 96.3 336.989 96.85 337.289 97.95C337.689 99.05 337.889 100.55 337.889 102.45C337.889 104.35 337.689 105.9 337.289 107.1C336.989 108.2 336.189 108.75 334.889 108.75Z" fill="white"/>
<path d="M419.169 108.75V96.3H435.219V108.75H419.169ZM334.869 108.75V96.3H409.869L405.069 100.5V75.45C405.069 70.15 404.369 65.8 402.969 62.4C401.669 58.9 399.669 56.35 396.969 54.75C394.269 53.05 390.919 52.2 386.919 52.2H354.069L344.469 37.95L351.369 24.9C352.469 22.9 353.619 20.8 354.819 18.6C356.119 16.3 357.669 13.7 359.469 10.8C361.369 7.8 363.769 4.2 366.669 0L378.369 6.75C375.569 11.05 373.269 14.6 371.469 17.4C369.769 20.2 368.319 22.65 367.119 24.75C365.919 26.75 364.769 28.75 363.669 30.75L356.619 44.25L353.619 39.75H386.919C393.219 39.75 398.469 40.85 402.669 43.05C406.869 45.15 410.119 47.95 412.419 51.45C414.819 54.95 416.519 58.85 417.519 63.15C418.619 67.35 419.169 71.45 419.169 75.45V108.75H334.869ZM334.869 108.75C333.569 108.75 332.769 108.2 332.469 107.1C332.069 105.9 331.869 104.35 331.869 102.45C331.869 100.55 332.069 99.05 332.469 97.95C332.769 96.85 333.569 96.3 334.869 96.3V108.75ZM435.219 108.75V96.3C436.519 96.3 437.319 96.85 437.619 97.95C438.019 99.05 438.219 100.55 438.219 102.45C438.219 104.35 438.019 105.9 437.619 107.1C437.319 108.2 436.519 108.75 435.219 108.75Z" fill="white"/>
<path d="M467.461 108.75V96.3H484.411V108.75H467.461ZM484.411 108.75V96.3C485.711 96.3 486.511 96.85 486.811 97.95C487.211 99.05 487.411 100.55 487.411 102.45C487.411 104.35 487.211 105.9 486.811 107.1C486.511 108.2 485.711 108.75 484.411 108.75ZM435.211 108.75V96.3H460.711L453.511 102V33.6H467.461V108.75H435.211ZM435.211 108.75C433.911 108.75 433.111 108.2 432.811 107.1C432.411 105.9 432.211 104.35 432.211 102.45C432.211 100.55 432.411 99.05 432.811 97.95C433.111 96.85 433.911 96.3 435.211 96.3V108.75ZM441.211 21.45V6.9H455.311V21.45H441.211ZM461.761 21.45V6.9H475.861V21.45H461.761Z" fill="white"/>
<path d="M484.43 108.75V96.3H507.68L500.48 102V33.6H514.58V108.75H484.43ZM484.43 108.75C483.13 108.75 482.33 108.2 482.03 107.1C481.63 105.9 481.43 104.35 481.43 102.45C481.43 100.55 481.63 99.05 482.03 97.95C482.33 96.85 483.13 96.3 484.43 96.3V108.75ZM500.48 137.1V122.55H514.58V137.1H500.48Z" fill="white"/>
</svg>

