<svg width="677" height="420" viewBox="0 0 677 420" fill="none" xmlns="http://www.w3.org/2000/svg">
<path d="M283.383 0C281.36 0 279.356 0.081677 277.372 0.24501H289.393C287.41 0.0843437 285.407 0.00266667 283.383 0Z" fill="#1D1D1B"/>
<path d="M338.335 24.76C337.935 25.272 337.552 25.794 337.166 26.316C337.573 25.825 337.991 25.335 338.419 24.854C338.387 24.82 338.366 24.789 338.335 24.76ZM337.135 120.416C337.535 120.948 337.928 121.481 338.335 122.003C338.366 121.972 338.387 121.94 338.419 121.909C337.98 121.416 337.552 120.915 337.134 120.413L337.135 120.416ZM332.552 18.743C320.578 8.01854 305.415 1.51943 289.391 0.242981H277.373C239.662 3.27198 210 34.543 210 72.672C210 110.801 239.672 142.092 277.4 145.101H289.354C305.392 143.841 320.57 137.34 332.547 126.601C320.282 111.302 313.597 92.2784 313.597 72.6695C313.597 53.0605 320.282 34.0373 332.547 18.738L332.552 18.743ZM307.003 102.605C303.777 105.097 299.559 106.679 294.38 107.372V122.137H285.913V107.796H273.865V122.137H265.393V107.796H253.025V99.349L260.584 97.901V47.433L253.025 45.985V37.485H265.393V23.205H273.86V37.485H284.572C285 37.485 285.397 37.506 285.814 37.516H285.908V23.207H294.375V38.417C297.853 39.0535 301.168 40.3795 304.126 42.317C308.803 45.533 311.142 50.3443 311.142 56.751C311.19 59.8557 310.278 62.8994 308.532 65.467C306.666 68.133 304.017 70.1528 300.952 71.247C304.77 71.8781 308.201 73.9506 310.536 77.037C311.248 78.0174 311.847 79.0755 312.321 80.191C312.455 80.481 312.573 80.7777 312.676 81.08C313.39 83.0838 313.747 85.1977 313.73 87.325C313.761 89.7656 313.406 92.1958 312.676 94.525C312.342 95.5935 311.894 96.6231 311.34 97.596C310.256 99.5478 308.78 101.253 307.003 102.605ZM337.134 120.413C337.534 120.945 337.927 121.478 338.334 122C338.365 121.969 338.386 121.937 338.418 121.906C337.98 121.416 337.552 120.915 337.134 120.413Z" fill="white"/>
<path d="M466.836 73.379C466.836 91.8054 459.904 109.557 447.416 123.107C434.929 136.657 417.801 145.013 399.436 146.515H387.478C368.551 144.99 350.958 136.165 338.418 121.907C339.942 120.184 341.394 118.378 342.751 116.507C351.579 126.898 363.384 134.329 376.57 137.797C389.757 141.265 403.69 140.603 416.488 135.9C429.286 131.198 440.333 122.681 448.137 111.499C455.94 100.318 460.124 87.0119 460.124 73.377C460.124 59.7421 455.94 46.4356 448.137 35.2545C440.333 24.0734 429.286 15.5564 416.488 10.8536C403.69 6.15074 389.757 5.4887 376.57 8.95683C363.384 12.425 351.579 19.8562 342.751 30.247C341.394 28.378 339.943 26.582 338.418 24.847C350.955 10.601 368.533 1.77857 387.447 0.239014H399.464C417.824 1.74805 434.946 10.1078 447.427 23.6577C459.909 37.2077 466.837 54.9566 466.836 73.379V73.379Z" fill="white"/>
<path d="M393.457 0C391.432 0 389.429 0.081677 387.447 0.24501H399.466C397.483 0.0843437 395.48 0.00266667 393.457 0Z" fill="white"/>
<path d="M321.703 73.379C321.688 90.3037 327.097 106.788 337.137 120.413C326.11 107.213 320.071 90.5575 320.077 73.3574C320.083 56.1572 326.132 39.5059 337.168 26.313C327.111 39.9432 321.69 56.4398 321.703 73.379V73.379Z" fill="white"/>
<path d="M312.679 15.329H243.052V128.234H312.679V15.329Z" fill="white"/>
<path d="M283.382 146.761C285.396 146.761 287.39 146.676 289.363 146.518H277.401C279.374 146.677 281.368 146.761 283.382 146.761Z" fill="#1D1D1B"/>
<path d="M342.753 116.507C351.859 103.971 356.763 88.8749 356.763 73.381C356.763 57.8871 351.859 42.7908 342.753 30.255C332.487 42.279 326.847 57.5707 326.847 73.381C326.847 89.1913 332.487 104.483 342.753 116.507Z" fill="white"/>
<path d="M289.014 77.444H274.828V97.923H287.944C291.715 97.923 294.592 97.1024 296.574 95.461C298.556 93.8197 299.548 91.3897 299.549 88.171C299.549 84.6924 298.704 82.0347 297.014 80.198C295.324 78.3614 292.657 77.4434 289.014 77.444Z" fill="white"/>
<path d="M293.841 65.253C294.867 64.4486 295.683 63.4071 296.218 62.218C296.753 61.0288 296.992 59.7276 296.913 58.426C296.913 55.1433 295.88 52.722 293.813 51.162C291.746 49.602 288.666 48.8217 284.573 48.821H274.828V67.594H285.067C288.868 67.594 291.793 66.8137 293.841 65.253Z" fill="white"/>
<path d="M393.456 146.761C395.47 146.761 397.464 146.676 399.436 146.518H387.475C389.448 146.677 391.442 146.761 393.456 146.761Z" fill="white"/>
<path d="M326.85 73.38C326.836 89.1929 332.476 104.49 342.75 116.51C341.393 118.379 339.942 120.185 338.417 121.91C337.979 121.419 337.55 120.918 337.133 120.417C326.106 107.217 320.067 90.5615 320.073 73.3614C320.079 56.1612 326.128 39.5099 337.164 26.317C337.571 25.826 337.989 25.336 338.417 24.855C339.941 26.588 341.393 28.384 342.75 30.255C332.478 42.2749 326.839 57.5692 326.85 73.38V73.38Z" fill="white"/>
<path d="M314.618 88.66L313.736 84.551L313.187 80.811L309.909 81.411L309.17 98.864L313.736 98.171L314.618 88.66Z" fill="white"/>
<path d="M365.234 25.214L355.534 40.214L385.169 86.037V128.886L401.734 103.267V81.176L365.234 25.214Z" fill="white"/>
<path d="M421.675 25.214L403.247 53.468L413.065 68.521L431.375 40.208L421.675 25.214Z" fill="white"/>
<path d="M301.981 77.785C299.66 74.6776 296.231 72.5836 292.407 71.938C295.476 70.8219 298.124 68.7833 299.987 66.102C301.73 63.5016 302.64 60.4323 302.597 57.302C302.597 50.8393 300.255 45.981 295.571 42.727C292.619 40.7713 289.302 39.4325 285.82 38.791V23.432H277.348V37.882C276.91 37.871 276.471 37.851 276.012 37.851H265.304V23.432H256.837V37.85H244.475V46.432L252.034 47.894V98.854L244.475 100.316V108.846H256.837V123.327H265.304V108.846H277.348V123.327H285.815V108.418C290.379 107.963 294.739 106.302 298.448 103.605C302.927 100.108 305.168 94.964 305.172 88.174C305.242 84.4595 304.124 80.8196 301.981 77.785V77.785ZM266.264 48.823H276.015C280.118 48.823 283.198 49.6027 285.255 51.162C287.322 52.7173 288.355 55.1397 288.355 58.429C288.433 59.7304 288.194 61.0312 287.659 62.2203C287.125 63.4093 286.31 64.4512 285.285 65.257C283.239 66.813 280.305 67.596 276.505 67.596H266.264V48.823ZM266.264 97.923V77.439H280.453C284.097 77.439 286.764 78.3577 288.453 80.195C290.142 82.0323 290.988 84.6913 290.99 88.172C290.99 91.388 289.998 93.817 288.014 95.459C286.03 97.101 283.155 97.9223 279.39 97.923H266.264Z" fill="#4ADE80"/>
<path d="M94.56 329V317.64H111.84V329H94.56ZM51.36 368.68C42.9333 368.68 35.3067 367.133 28.48 364.04C21.6533 360.947 16.2667 356.627 12.32 351.08C8.37333 345.533 6.4 339.187 6.4 332.04C6.4 329.8 6.56 326.867 6.88 323.24C7.30667 319.507 7.78667 315.4 8.32 310.92C8.96 306.333 9.65333 301.747 10.4 297.16C11.1467 292.467 11.84 288.04 12.48 283.88L24.8 285.8C23.6267 293.16 22.56 299.987 21.6 306.28C20.7467 312.467 20.0533 317.8 19.52 322.28C19.0933 326.653 18.88 329.907 18.88 332.04C18.88 336.947 20.2133 341.267 22.88 345C25.6533 348.84 29.4933 351.827 34.4 353.96C39.3067 356.2 44.96 357.32 51.36 357.32C57.76 357.32 63.2533 356.307 67.84 354.28C72.4267 352.253 75.9467 349.427 78.4 345.8C80.8533 342.173 82.08 337.907 82.08 333V249H94.56V333C94.56 340.467 92.5867 346.867 88.64 352.2C84.8 357.533 79.6267 361.587 73.12 364.36C66.6133 367.24 59.36 368.68 51.36 368.68ZM111.84 329V317.64C113.227 317.64 114.08 318.173 114.4 319.24C114.827 320.2 115.04 321.533 115.04 323.24C115.04 324.947 114.827 326.333 114.4 327.4C114.08 328.467 113.227 329 111.84 329ZM44.48 249V234.6H56.96V249H44.48ZM202.595 329V317.64H219.875V329H202.595ZM111.875 329V317.64H199.395L190.115 324.2V289.8C190.115 282.333 189.262 276.467 187.555 272.2C185.848 267.933 182.915 264.893 178.755 263.08C174.702 261.267 169.155 260.36 162.115 260.36C157.635 260.36 153.155 260.68 148.675 261.32C144.302 261.96 140.888 262.813 138.435 263.88L145.955 256.2C145.315 258.76 144.675 262.013 144.035 265.96C143.395 269.8 142.862 273.96 142.435 278.44C142.008 282.92 141.795 287.4 141.795 291.88C141.795 296.467 142.008 300.947 142.435 305.32C142.862 309.693 143.342 313.48 143.875 316.68C144.408 319.88 144.835 322.12 145.155 323.4L133.315 326.76C132.888 325.373 132.355 322.973 131.715 319.56C131.182 316.147 130.648 312.04 130.115 307.24C129.688 302.44 129.475 297.32 129.475 291.88C129.475 286.653 129.688 281.587 130.115 276.68C130.648 271.667 131.235 267.133 131.875 263.08C132.622 259.027 133.315 255.773 133.955 253.32C136.302 252.36 140.035 251.4 145.155 250.44C150.275 249.48 155.928 249 162.115 249C171.075 249 178.542 250.333 184.515 253C190.595 255.667 195.128 259.987 198.115 265.96C201.102 271.827 202.595 279.773 202.595 289.8V329H111.875ZM111.875 329C110.488 329 109.635 328.467 109.315 327.4C108.888 326.333 108.675 324.947 108.675 323.24C108.675 321.533 108.888 320.2 109.315 319.24C109.635 318.173 110.488 317.64 111.875 317.64V329ZM219.875 329V317.64C221.262 317.64 222.115 318.173 222.435 319.24C222.862 320.2 223.075 321.533 223.075 323.24C223.075 324.947 222.862 326.333 222.435 327.4C222.115 328.467 221.262 329 219.875 329ZM249.604 329V317.64H266.884V329H249.604ZM266.884 329V317.64C268.27 317.64 269.124 318.173 269.444 319.24C269.87 320.2 270.084 321.533 270.084 323.24C270.084 324.947 269.87 326.333 269.444 327.4C269.124 328.467 268.27 329 266.884 329ZM219.844 329V317.64H242.884L237.124 322.28V249H249.604V329H219.844ZM219.844 329C218.457 329 217.604 328.467 217.284 327.4C216.857 326.333 216.644 324.947 216.644 323.24C216.644 321.533 216.857 320.2 217.284 319.24C217.604 318.173 218.457 317.64 219.844 317.64V329ZM226.244 357.8V343.4H238.724V357.8H226.244ZM248.164 357.8V343.4H260.644V357.8H248.164ZM286.235 329V214.28H298.715V329H286.235ZM266.875 329V317.64H286.235V329H266.875ZM266.875 329C265.488 329 264.635 328.467 264.315 327.4C263.888 326.333 263.675 324.947 263.675 323.24C263.675 321.533 263.888 320.2 264.315 319.24C264.635 318.173 265.488 317.64 266.875 317.64V329ZM326.298 329V214.28H338.618V329H326.298ZM464.263 329V317.64H481.543V329H464.263ZM426.343 364.36C422.609 364.36 418.609 364.04 414.343 363.4C410.183 362.867 405.596 362.067 400.583 361L402.503 350.92C408.156 351.667 412.849 352.2 416.583 352.52C420.423 352.84 423.676 353 426.343 353C435.196 353 441.649 351.293 445.703 347.88C449.756 344.573 451.783 339.72 451.783 333.32V256.2L458.183 260.36H431.143C424.956 260.36 420.156 261.107 416.743 262.6C413.436 264.093 411.143 266.92 409.863 271.08C408.583 275.133 407.943 281.107 407.943 289C407.943 296.893 408.583 302.92 409.863 307.08C411.143 311.133 413.436 313.907 416.743 315.4C420.156 316.893 424.956 317.64 431.143 317.64H451.783V329H431.143C421.863 329 414.609 327.613 409.383 324.84C404.263 321.96 400.636 317.587 398.503 311.72C396.476 305.747 395.463 298.173 395.463 289C395.463 279.827 396.476 272.307 398.503 266.44C400.636 260.467 404.263 256.093 409.383 253.32C414.609 250.44 421.863 249 431.143 249H464.263V333.16C464.263 339.773 462.716 345.427 459.623 350.12C456.636 354.813 452.316 358.333 446.663 360.68C441.009 363.133 434.236 364.36 426.343 364.36ZM481.543 329V317.64C482.929 317.64 483.783 318.173 484.103 319.24C484.529 320.2 484.743 321.533 484.743 323.24C484.743 324.947 484.529 326.333 484.103 327.4C483.783 328.467 482.929 329 481.543 329ZM569.563 329V317.64H586.843V329H569.563ZM481.562 329V317.64H561.562L557.083 321.64V293.16C557.083 287.4 556.283 282.653 554.683 278.92C553.189 275.08 550.896 272.253 547.803 270.44C544.816 268.52 541.029 267.56 536.443 267.56H501.562L492.443 253.8L499.323 240.52C500.603 238.173 501.936 235.773 503.323 233.32C504.709 230.867 506.416 228.04 508.443 224.84C510.469 221.64 513.029 217.747 516.123 213.16L526.523 219.4C523.429 224.093 520.923 227.987 519.003 231.08C517.083 234.173 515.429 236.84 514.043 239.08C512.763 241.32 511.536 243.56 510.363 245.8L502.363 261.16L499.163 256.2H536.443C543.163 256.2 548.656 257.373 552.923 259.72C557.296 261.96 560.656 264.947 563.003 268.68C565.456 272.413 567.163 276.467 568.123 280.84C569.083 285.107 569.563 289.213 569.563 293.16V329H481.562ZM481.562 329C480.176 329 479.322 328.467 479.002 327.4C478.576 326.333 478.362 324.947 478.362 323.24C478.362 321.533 478.576 320.2 479.002 319.24C479.322 318.173 480.176 317.64 481.562 317.64V329ZM586.843 329V317.64C588.229 317.64 589.083 318.173 589.403 319.24C589.829 320.2 590.043 321.533 590.043 323.24C590.043 324.947 589.829 326.333 589.403 327.4C589.083 328.467 588.229 329 586.843 329ZM616.635 329V317.64H633.915V329H616.635ZM633.915 329V317.64C635.302 317.64 636.155 318.173 636.475 319.24C636.902 320.2 637.115 321.533 637.115 323.24C637.115 324.947 636.902 326.333 636.475 327.4C636.155 328.467 635.302 329 633.915 329ZM586.875 329V317.64H609.915L604.155 322.28V249H616.635V329H586.875ZM586.875 329C585.488 329 584.635 328.467 584.315 327.4C583.888 326.333 583.675 324.947 583.675 323.24C583.675 321.533 583.888 320.2 584.315 319.24C584.635 318.173 585.488 317.64 586.875 317.64V329ZM593.275 234.6V220.2H605.755V234.6H593.275ZM615.195 234.6V220.2H627.675V234.6H615.195ZM633.906 329V317.64H656.946L651.186 322.28V249H663.666V329H633.906ZM633.906 329C632.52 329 631.666 328.467 631.346 327.4C630.92 326.333 630.706 324.947 630.706 323.24C630.706 321.533 630.92 320.2 631.346 319.24C631.666 318.173 632.52 317.64 633.906 317.64V329ZM651.186 357.8V343.4H663.666V357.8H651.186Z" fill="white"/>
<path d="M94.56 329H92.06V331.5H94.56V329ZM94.56 317.64V315.14H92.06V317.64H94.56ZM111.84 317.64H114.34V315.14H111.84V317.64ZM111.84 329V331.5H114.34V329H111.84ZM28.48 364.04L27.4482 366.317L27.4482 366.317L28.48 364.04ZM12.32 351.08L10.283 352.529L10.283 352.529L12.32 351.08ZM6.88 323.24L4.39617 322.956L4.39251 322.988L4.38968 323.02L6.88 323.24ZM8.32 310.92L5.84399 310.575L5.84051 310.599L5.83753 310.624L8.32 310.92ZM10.4 297.16L12.8675 297.562L12.869 297.553L10.4 297.16ZM12.48 283.88L12.865 281.41L10.39 281.024L10.0091 283.5L12.48 283.88ZM24.8 285.8L27.2688 286.194L27.6638 283.716L25.185 283.33L24.8 285.8ZM21.6 306.28L19.1286 305.903L19.1259 305.921L19.1234 305.938L21.6 306.28ZM19.52 322.28L17.0375 321.984L17.0344 322.011L17.0318 322.037L19.52 322.28ZM22.88 345L20.8456 346.453L20.8533 346.464L22.88 345ZM34.4 353.96L35.4382 351.686L35.4176 351.676L35.3968 351.667L34.4 353.96ZM67.84 354.28L68.8504 356.567L68.8504 356.567L67.84 354.28ZM78.4 345.8L76.3293 344.399L76.3293 344.399L78.4 345.8ZM82.08 249V246.5H79.58V249H82.08ZM94.56 249H97.06V246.5H94.56V249ZM88.64 352.2L86.6304 350.713L86.6207 350.726L86.6112 350.739L88.64 352.2ZM73.12 364.36L72.1398 362.06L72.1239 362.067L72.1081 362.074L73.12 364.36ZM111.84 329H109.34V331.5H111.84V329ZM111.84 317.64V315.14H109.34V317.64H111.84ZM114.4 319.24L112.005 319.958L112.051 320.11L112.115 320.255L114.4 319.24ZM114.4 327.4L112.079 326.472L112.037 326.575L112.005 326.682L114.4 327.4ZM44.48 249H41.98V251.5H44.48V249ZM44.48 234.6V232.1H41.98V234.6H44.48ZM56.96 234.6H59.46V232.1H56.96V234.6ZM56.96 249V251.5H59.46V249H56.96ZM97.06 329V317.64H92.06V329H97.06ZM94.56 320.14H111.84V315.14H94.56V320.14ZM109.34 317.64V329H114.34V317.64H109.34ZM111.84 326.5H94.56V331.5H111.84V326.5ZM51.36 366.18C43.2449 366.18 35.9762 364.692 29.5118 361.763L27.4482 366.317C34.6371 369.575 42.6218 371.18 51.36 371.18V366.18ZM29.5118 361.763C23.0457 358.833 18.0223 354.782 14.357 349.631L10.283 352.529C14.5111 358.471 20.261 363.06 27.4482 366.317L29.5118 361.763ZM14.357 349.631C10.7271 344.529 8.9 338.695 8.9 332.04H3.9C3.9 339.679 6.01961 346.538 10.283 352.529L14.357 349.631ZM8.9 332.04C8.9 329.904 9.05333 327.052 9.37032 323.46L4.38968 323.02C4.06667 326.681 3.9 329.696 3.9 332.04H8.9ZM9.36383 323.524C9.78998 319.795 10.2695 315.692 10.8025 311.216L5.83753 310.624C5.30382 315.108 4.82336 319.218 4.39617 322.956L9.36383 323.524ZM10.796 311.265C11.4334 306.698 12.1239 302.13 12.8675 297.562L7.93248 296.758C7.18278 301.364 6.48662 305.969 5.84399 310.575L10.796 311.265ZM12.869 297.553C13.6162 292.856 14.3102 288.425 14.9509 284.26L10.0091 283.5C9.3698 287.655 8.67713 292.078 7.93105 296.767L12.869 297.553ZM12.095 286.35L24.415 288.27L25.185 283.33L12.865 281.41L12.095 286.35ZM22.3312 285.406C21.1571 292.771 20.0896 299.603 19.1286 305.903L24.0714 306.657C25.0304 300.37 26.0962 293.549 27.2688 286.194L22.3312 285.406ZM19.1234 305.938C18.2687 312.135 17.5732 317.485 17.0375 321.984L22.0025 322.576C22.5334 318.115 23.2246 312.798 24.0766 306.622L19.1234 305.938ZM17.0318 322.037C16.6037 326.426 16.38 329.779 16.38 332.04H21.38C21.38 330.034 21.583 326.881 22.0082 322.523L17.0318 322.037ZM16.38 332.04C16.38 337.429 17.8546 342.266 20.8457 346.453L24.9143 343.547C22.572 340.268 21.38 336.464 21.38 332.04H16.38ZM20.8533 346.464C23.922 350.713 28.1395 353.964 33.4032 356.253L35.3968 351.667C30.8471 349.689 27.3846 346.967 24.9067 343.536L20.8533 346.464ZM33.3618 356.234C38.6494 358.648 44.6677 359.82 51.36 359.82V354.82C45.2523 354.82 39.9639 353.752 35.4382 351.686L33.3618 356.234ZM51.36 359.82C58.0154 359.82 63.8705 358.767 68.8504 356.567L66.8296 351.993C62.6362 353.846 57.5046 354.82 51.36 354.82V359.82ZM68.8504 356.567C73.8029 354.378 77.7176 351.271 80.4707 347.201L76.3293 344.399C74.1757 347.583 71.0505 350.128 66.8296 351.993L68.8504 356.567ZM80.4707 347.201C83.2369 343.112 84.58 338.343 84.58 333H79.58C79.58 337.47 78.4698 341.235 76.3293 344.399L80.4707 347.201ZM84.58 333V249H79.58V333H84.58ZM82.08 251.5H94.56V246.5H82.08V251.5ZM92.06 249V333H97.06V249H92.06ZM92.06 333C92.06 340.002 90.2192 345.863 86.6304 350.713L90.6496 353.687C94.9542 347.87 97.06 340.932 97.06 333H92.06ZM86.6112 350.739C83.058 355.674 78.2601 359.452 72.1398 362.06L74.1002 366.66C80.9932 363.722 86.5421 359.392 90.6688 353.661L86.6112 350.739ZM72.1081 362.074C65.9576 364.796 59.0549 366.18 51.36 366.18V371.18C59.6651 371.18 67.2691 369.684 74.1319 366.646L72.1081 362.074ZM114.34 329V317.64H109.34V329H114.34ZM111.84 320.14C112.03 320.14 112.145 320.159 112.201 320.172C112.254 320.185 112.242 320.19 112.195 320.16C112.143 320.128 112.088 320.078 112.044 320.018C112.003 319.962 111.997 319.932 112.005 319.958L116.795 318.522C116.48 317.473 115.843 316.544 114.845 315.92C113.898 315.328 112.831 315.14 111.84 315.14V320.14ZM112.115 320.255C112.339 320.757 112.54 321.691 112.54 323.24H117.54C117.54 321.376 117.315 319.643 116.685 318.225L112.115 320.255ZM112.54 323.24C112.54 324.769 112.345 325.807 112.079 326.472L116.721 328.328C117.309 326.86 117.54 325.125 117.54 323.24H112.54ZM112.005 326.682C111.997 326.708 112.003 326.678 112.044 326.622C112.088 326.562 112.143 326.512 112.195 326.48C112.242 326.45 112.254 326.455 112.201 326.468C112.145 326.481 112.03 326.5 111.84 326.5V331.5C112.831 331.5 113.898 331.312 114.845 330.72C115.843 330.096 116.48 329.167 116.795 328.118L112.005 326.682ZM46.98 249V234.6H41.98V249H46.98ZM44.48 237.1H56.96V232.1H44.48V237.1ZM54.46 234.6V249H59.46V234.6H54.46ZM56.96 246.5H44.48V251.5H56.96V246.5ZM202.595 329H200.095V331.5H202.595V329ZM202.595 317.64V315.14H200.095V317.64H202.595ZM219.875 317.64H222.375V315.14H219.875V317.64ZM219.875 329V331.5H222.375V329H219.875ZM111.875 329H109.375V331.5H111.875V329ZM111.875 317.64V315.14H109.375V317.64H111.875ZM199.395 317.64L200.838 319.681L207.263 315.14H199.395V317.64ZM190.115 324.2H187.615V329.029L191.558 326.241L190.115 324.2ZM178.755 263.08L177.734 265.362L177.745 265.367L177.756 265.372L178.755 263.08ZM148.675 261.32L148.321 258.845L148.313 258.846L148.675 261.32ZM138.435 263.88L136.649 262.131L139.432 266.173L138.435 263.88ZM145.955 256.2L148.38 256.806L150.615 247.867L144.169 254.451L145.955 256.2ZM144.035 265.96L146.501 266.371L146.503 266.36L144.035 265.96ZM142.435 278.44L144.924 278.677L144.924 278.677L142.435 278.44ZM142.435 305.32L144.923 305.077L144.923 305.077L142.435 305.32ZM143.875 316.68L141.409 317.091L141.409 317.091L143.875 316.68ZM145.155 323.4L145.838 325.805L148.168 325.144L147.58 322.794L145.155 323.4ZM133.315 326.76L130.926 327.495L131.645 329.833L133.998 329.165L133.315 326.76ZM131.715 319.56L129.245 319.946L129.251 319.983L129.258 320.021L131.715 319.56ZM130.115 307.24L127.625 307.461L127.627 307.489L127.63 307.516L130.115 307.24ZM130.115 276.68L127.629 276.416L127.626 276.439L127.624 276.463L130.115 276.68ZM131.875 263.08L129.416 262.627L129.411 262.659L129.406 262.69L131.875 263.08ZM133.955 253.32L133.008 251.006L131.851 251.479L131.536 252.689L133.955 253.32ZM145.155 250.44L144.694 247.983L144.694 247.983L145.155 250.44ZM184.515 253L183.496 255.283L183.503 255.286L183.511 255.289L184.515 253ZM198.115 265.96L195.879 267.078L195.883 267.086L195.887 267.094L198.115 265.96ZM202.595 329V331.5H205.095V329H202.595ZM111.875 329V331.5H114.375V329H111.875ZM109.315 327.4L111.71 326.682L111.678 326.575L111.636 326.472L109.315 327.4ZM109.315 319.24L111.6 320.255L111.664 320.11L111.71 319.958L109.315 319.24ZM111.875 317.64H114.375V315.14H111.875V317.64ZM219.875 329H217.375V331.5H219.875V329ZM219.875 317.64V315.14H217.375V317.64H219.875ZM222.435 319.24L220.04 319.958L220.086 320.11L220.15 320.255L222.435 319.24ZM222.435 327.4L220.114 326.472L220.072 326.575L220.04 326.682L222.435 327.4ZM205.095 329V317.64H200.095V329H205.095ZM202.595 320.14H219.875V315.14H202.595V320.14ZM217.375 317.64V329H222.375V317.64H217.375ZM219.875 326.5H202.595V331.5H219.875V326.5ZM114.375 329V317.64H109.375V329H114.375ZM111.875 320.14H199.395V315.14H111.875V320.14ZM197.952 315.599L188.672 322.159L191.558 326.241L200.838 319.681L197.952 315.599ZM192.615 324.2V289.8H187.615V324.2H192.615ZM192.615 289.8C192.615 282.189 191.752 275.961 189.876 271.272L185.234 273.128C186.771 276.973 187.615 282.477 187.615 289.8H192.615ZM189.876 271.272C187.929 266.403 184.525 262.868 179.754 260.788L177.756 265.372C181.305 266.919 183.768 269.464 185.234 273.128L189.876 271.272ZM179.776 260.798C175.268 258.781 169.324 257.86 162.115 257.86V262.86C168.986 262.86 174.135 263.752 177.734 265.362L179.776 260.798ZM162.115 257.86C157.516 257.86 152.917 258.189 148.321 258.845L149.029 263.795C153.393 263.171 157.754 262.86 162.115 262.86V257.86ZM148.313 258.846C143.843 259.5 140.183 260.394 137.438 261.587L139.432 266.173C141.594 265.233 144.76 264.42 149.037 263.794L148.313 258.846ZM140.221 265.629L147.741 257.949L144.169 254.451L136.649 262.131L140.221 265.629ZM143.53 255.594C142.866 258.247 142.213 261.575 141.567 265.56L146.503 266.36C147.137 262.451 147.764 259.273 148.38 256.806L143.53 255.594ZM141.569 265.549C140.918 269.455 140.378 273.673 139.946 278.203L144.924 278.677C145.346 274.247 145.872 270.145 146.501 266.371L141.569 265.549ZM139.946 278.203C139.512 282.761 139.295 287.32 139.295 291.88H144.295C144.295 287.479 144.505 283.079 144.924 278.677L139.946 278.203ZM139.295 291.88C139.295 296.544 139.512 301.105 139.947 305.563L144.923 305.077C144.505 300.788 144.295 296.389 144.295 291.88H139.295ZM139.947 305.563C140.377 309.974 140.864 313.82 141.409 317.091L146.341 316.269C145.82 313.14 145.346 309.413 144.923 305.077L139.947 305.563ZM141.409 317.091C141.942 320.29 142.383 322.619 142.73 324.006L147.58 322.794C147.287 321.621 146.875 319.47 146.341 316.269L141.409 317.091ZM144.472 320.995L132.632 324.355L133.998 329.165L145.838 325.805L144.472 320.995ZM135.704 326.025C135.324 324.787 134.812 322.512 134.172 319.099L129.258 320.021C129.898 323.435 130.453 325.959 130.926 327.495L135.704 326.025ZM134.185 319.174C133.659 315.808 133.13 311.74 132.6 306.964L127.63 307.516C128.166 312.34 128.704 316.485 129.245 319.946L134.185 319.174ZM132.605 307.019C132.186 302.301 131.975 297.255 131.975 291.88H126.975C126.975 297.385 127.191 302.579 127.625 307.461L132.605 307.019ZM131.975 291.88C131.975 286.721 132.186 281.727 132.606 276.897L127.624 276.463C127.191 281.446 126.975 286.585 126.975 291.88H131.975ZM132.601 276.944C133.131 271.964 133.712 267.473 134.344 263.47L129.406 262.69C128.758 266.793 128.166 271.369 127.629 276.416L132.601 276.944ZM134.334 263.533C135.075 259.507 135.756 256.321 136.374 253.951L131.536 252.689C130.874 255.226 130.168 258.546 129.416 262.627L134.334 263.533ZM134.902 255.634C137.001 254.775 140.526 253.851 145.616 252.897L144.694 247.983C139.544 248.949 135.602 249.945 133.008 251.006L134.902 255.634ZM145.616 252.897C150.559 251.97 156.055 251.5 162.115 251.5V246.5C155.802 246.5 149.991 246.99 144.694 247.983L145.616 252.897ZM162.115 251.5C170.846 251.5 177.939 252.802 183.496 255.283L185.534 250.717C179.145 247.865 171.304 246.5 162.115 246.5V251.5ZM183.511 255.289C189.053 257.72 193.152 261.624 195.879 267.078L200.351 264.842C197.105 258.35 192.137 253.613 185.519 250.711L183.511 255.289ZM195.887 267.094C198.626 272.474 200.095 279.98 200.095 289.8H205.095C205.095 279.567 203.578 271.18 200.343 264.826L195.887 267.094ZM200.095 289.8V329H205.095V289.8H200.095ZM202.595 326.5H111.875V331.5H202.595V326.5ZM111.875 326.5C111.685 326.5 111.57 326.481 111.514 326.468C111.461 326.455 111.473 326.45 111.52 326.48C111.572 326.512 111.627 326.562 111.671 326.622C111.712 326.678 111.718 326.708 111.71 326.682L106.92 328.118C107.235 329.167 107.872 330.096 108.87 330.72C109.817 331.312 110.884 331.5 111.875 331.5V326.5ZM111.636 326.472C111.37 325.807 111.175 324.769 111.175 323.24H106.175C106.175 325.125 106.406 326.86 106.994 328.328L111.636 326.472ZM111.175 323.24C111.175 321.691 111.376 320.757 111.6 320.255L107.03 318.225C106.4 319.643 106.175 321.376 106.175 323.24H111.175ZM111.71 319.958C111.718 319.932 111.712 319.962 111.671 320.018C111.627 320.078 111.572 320.128 111.52 320.16C111.473 320.19 111.461 320.185 111.514 320.172C111.57 320.159 111.685 320.14 111.875 320.14V315.14C110.884 315.14 109.817 315.328 108.87 315.92C107.872 316.544 107.235 317.473 106.92 318.522L111.71 319.958ZM109.375 317.64V329H114.375V317.64H109.375ZM222.375 329V317.64H217.375V329H222.375ZM219.875 320.14C220.065 320.14 220.18 320.159 220.236 320.172C220.289 320.185 220.277 320.19 220.23 320.16C220.178 320.128 220.123 320.078 220.079 320.018C220.038 319.962 220.032 319.932 220.04 319.958L224.83 318.522C224.515 317.473 223.878 316.544 222.88 315.92C221.933 315.328 220.866 315.14 219.875 315.14V320.14ZM220.15 320.255C220.374 320.757 220.575 321.691 220.575 323.24H225.575C225.575 321.376 225.35 319.643 224.72 318.225L220.15 320.255ZM220.575 323.24C220.575 324.769 220.38 325.807 220.114 326.472L224.756 328.328C225.344 326.86 225.575 325.125 225.575 323.24H220.575ZM220.04 326.682C220.032 326.708 220.038 326.678 220.079 326.622C220.123 326.562 220.178 326.512 220.23 326.48C220.277 326.45 220.289 326.455 220.236 326.468C220.18 326.481 220.065 326.5 219.875 326.5V331.5C220.866 331.5 221.933 331.312 222.88 330.72C223.878 330.096 224.515 329.167 224.83 328.118L220.04 326.682ZM249.604 329H247.104V331.5H249.604V329ZM249.604 317.64V315.14H247.104V317.64H249.604ZM266.884 317.64H269.384V315.14H266.884V317.64ZM266.884 329V331.5H269.384V329H266.884ZM266.884 329H264.384V331.5H266.884V329ZM266.884 317.64V315.14H264.384V317.64H266.884ZM269.444 319.24L267.049 319.958L267.095 320.11L267.159 320.255L269.444 319.24ZM269.444 327.4L267.123 326.472L267.081 326.575L267.049 326.682L269.444 327.4ZM219.844 329H217.344V331.5H219.844V329ZM219.844 317.64V315.14H217.344V317.64H219.844ZM242.884 317.64L244.452 319.587L249.972 315.14H242.884V317.64ZM237.124 322.28H234.624V327.504L238.692 324.227L237.124 322.28ZM237.124 249V246.5H234.624V249H237.124ZM249.604 249H252.104V246.5H249.604V249ZM249.604 329V331.5H252.104V329H249.604ZM219.844 329V331.5H222.344V329H219.844ZM217.284 327.4L219.678 326.682L219.646 326.575L219.605 326.472L217.284 327.4ZM217.284 319.24L219.568 320.255L219.633 320.11L219.678 319.958L217.284 319.24ZM219.844 317.64H222.344V315.14H219.844V317.64ZM226.244 357.8H223.744V360.3H226.244V357.8ZM226.244 343.4V340.9H223.744V343.4H226.244ZM238.724 343.4H241.224V340.9H238.724V343.4ZM238.724 357.8V360.3H241.224V357.8H238.724ZM248.164 357.8H245.664V360.3H248.164V357.8ZM248.164 343.4V340.9H245.664V343.4H248.164ZM260.644 343.4H263.144V340.9H260.644V343.4ZM260.644 357.8V360.3H263.144V357.8H260.644ZM252.104 329V317.64H247.104V329H252.104ZM249.604 320.14H266.884V315.14H249.604V320.14ZM264.384 317.64V329H269.384V317.64H264.384ZM266.884 326.5H249.604V331.5H266.884V326.5ZM269.384 329V317.64H264.384V329H269.384ZM266.884 320.14C267.074 320.14 267.188 320.159 267.245 320.172C267.298 320.185 267.286 320.19 267.239 320.16C267.187 320.128 267.131 320.078 267.088 320.018C267.046 319.962 267.041 319.932 267.049 319.958L271.838 318.522C271.524 317.473 270.886 316.544 269.889 315.92C268.941 315.328 267.875 315.14 266.884 315.14V320.14ZM267.159 320.255C267.382 320.757 267.584 321.691 267.584 323.24H272.584C272.584 321.376 272.359 319.643 271.728 318.225L267.159 320.255ZM267.584 323.24C267.584 324.769 267.388 325.807 267.123 326.472L271.765 328.328C272.352 326.86 272.584 325.125 272.584 323.24H267.584ZM267.049 326.682C267.041 326.708 267.046 326.678 267.088 326.622C267.131 326.562 267.187 326.512 267.239 326.48C267.286 326.45 267.298 326.455 267.245 326.468C267.188 326.481 267.074 326.5 266.884 326.5V331.5C267.875 331.5 268.941 331.312 269.889 330.72C270.886 330.096 271.524 329.167 271.838 328.118L267.049 326.682ZM222.344 329V317.64H217.344V329H222.344ZM219.844 320.14H242.884V315.14H219.844V320.14ZM241.315 315.693L235.555 320.333L238.692 324.227L244.452 319.587L241.315 315.693ZM239.624 322.28V249H234.624V322.28H239.624ZM237.124 251.5H249.604V246.5H237.124V251.5ZM247.104 249V329H252.104V249H247.104ZM249.604 326.5H219.844V331.5H249.604V326.5ZM219.844 326.5C219.654 326.5 219.539 326.481 219.483 326.468C219.429 326.455 219.442 326.45 219.489 326.48C219.54 326.512 219.596 326.562 219.64 326.622C219.681 326.678 219.686 326.708 219.678 326.682L214.889 328.118C215.204 329.167 215.841 330.096 216.839 330.72C217.786 331.312 218.852 331.5 219.844 331.5V326.5ZM219.605 326.472C219.339 325.807 219.144 324.769 219.144 323.24H214.144C214.144 325.125 214.375 326.86 214.963 328.328L219.605 326.472ZM219.144 323.24C219.144 321.691 219.345 320.757 219.568 320.255L214.999 318.225C214.369 319.643 214.144 321.376 214.144 323.24H219.144ZM219.678 319.958C219.686 319.932 219.681 319.962 219.64 320.018C219.596 320.078 219.54 320.128 219.489 320.16C219.442 320.19 219.429 320.185 219.483 320.172C219.539 320.159 219.654 320.14 219.844 320.14V315.14C218.852 315.14 217.786 315.328 216.839 315.92C215.841 316.544 215.204 317.473 214.889 318.522L219.678 319.958ZM217.344 317.64V329H222.344V317.64H217.344ZM228.744 357.8V343.4H223.744V357.8H228.744ZM226.244 345.9H238.724V340.9H226.244V345.9ZM236.224 343.4V357.8H241.224V343.4H236.224ZM238.724 355.3H226.244V360.3H238.724V355.3ZM250.664 357.8V343.4H245.664V357.8H250.664ZM248.164 345.9H260.644V340.9H248.164V345.9ZM258.144 343.4V357.8H263.144V343.4H258.144ZM260.644 355.3H248.164V360.3H260.644V355.3ZM286.235 329H283.735V331.5H286.235V329ZM286.235 214.28V211.78H283.735V214.28H286.235ZM298.715 214.28H301.215V211.78H298.715V214.28ZM298.715 329V331.5H301.215V329H298.715ZM266.875 329H264.375V331.5H266.875V329ZM266.875 317.64V315.14H264.375V317.64H266.875ZM286.235 317.64H288.735V315.14H286.235V317.64ZM286.235 329V331.5H288.735V329H286.235ZM266.875 329V331.5H269.375V329H266.875ZM264.315 327.4L266.71 326.682L266.678 326.575L266.636 326.472L264.315 327.4ZM264.315 319.24L266.6 320.255L266.664 320.11L266.71 319.958L264.315 319.24ZM266.875 317.64H269.375V315.14H266.875V317.64ZM288.735 329V214.28H283.735V329H288.735ZM286.235 216.78H298.715V211.78H286.235V216.78ZM296.215 214.28V329H301.215V214.28H296.215ZM298.715 326.5H286.235V331.5H298.715V326.5ZM269.375 329V317.64H264.375V329H269.375ZM266.875 320.14H286.235V315.14H266.875V320.14ZM283.735 317.64V329H288.735V317.64H283.735ZM286.235 326.5H266.875V331.5H286.235V326.5ZM266.875 326.5C266.685 326.5 266.57 326.481 266.514 326.468C266.461 326.455 266.473 326.45 266.52 326.48C266.572 326.512 266.627 326.562 266.671 326.622C266.712 326.678 266.718 326.708 266.71 326.682L261.92 328.118C262.235 329.167 262.872 330.096 263.87 330.72C264.817 331.312 265.884 331.5 266.875 331.5V326.5ZM266.636 326.472C266.37 325.807 266.175 324.769 266.175 323.24H261.175C261.175 325.125 261.406 326.86 261.994 328.328L266.636 326.472ZM266.175 323.24C266.175 321.691 266.376 320.757 266.6 320.255L262.03 318.225C261.4 319.643 261.175 321.376 261.175 323.24H266.175ZM266.71 319.958C266.718 319.932 266.712 319.962 266.671 320.018C266.627 320.078 266.572 320.128 266.52 320.16C266.473 320.19 266.461 320.185 266.514 320.172C266.57 320.159 266.685 320.14 266.875 320.14V315.14C265.884 315.14 264.817 315.328 263.87 315.92C262.872 316.544 262.235 317.473 261.92 318.522L266.71 319.958ZM264.375 317.64V329H269.375V317.64H264.375ZM326.298 329H323.798V331.5H326.298V329ZM326.298 214.28V211.78H323.798V214.28H326.298ZM338.618 214.28H341.118V211.78H338.618V214.28ZM338.618 329V331.5H341.118V329H338.618ZM328.798 329V214.28H323.798V329H328.798ZM326.298 216.78H338.618V211.78H326.298V216.78ZM336.118 214.28V329H341.118V214.28H336.118ZM338.618 326.5H326.298V331.5H338.618V326.5ZM464.263 329H461.763V331.5H464.263V329ZM464.263 317.64V315.14H461.763V317.64H464.263ZM481.543 317.64H484.043V315.14H481.543V317.64ZM481.543 329V331.5H484.043V329H481.543ZM414.343 363.4L414.713 360.928L414.687 360.924L414.66 360.92L414.343 363.4ZM400.583 361L398.127 360.532L397.669 362.936L400.062 363.445L400.583 361ZM402.503 350.92L402.83 348.442L400.489 348.132L400.047 350.452L402.503 350.92ZM416.583 352.52L416.369 355.011L416.375 355.011L416.583 352.52ZM445.703 347.88L444.122 345.943L444.107 345.955L444.092 345.968L445.703 347.88ZM451.783 256.2L453.145 254.104L449.283 251.593V256.2H451.783ZM458.183 260.36V262.86H466.616L459.545 258.264L458.183 260.36ZM416.743 262.6L415.74 260.31L415.727 260.316L415.714 260.322L416.743 262.6ZM409.863 271.08L412.246 271.833L412.249 271.824L412.252 271.815L409.863 271.08ZM409.863 307.08L407.473 307.815L407.476 307.824L407.479 307.833L409.863 307.08ZM416.743 315.4L415.714 317.678L415.727 317.684L415.74 317.69L416.743 315.4ZM451.783 317.64H454.283V315.14H451.783V317.64ZM451.783 329V331.5H454.283V329H451.783ZM409.383 324.84L408.157 327.019L408.184 327.034L408.211 327.048L409.383 324.84ZM398.503 311.72L396.135 312.523L396.144 312.549L396.153 312.574L398.503 311.72ZM398.503 266.44L396.148 265.599L396.144 265.611L396.14 265.624L398.503 266.44ZM409.383 253.32L410.573 255.518L410.581 255.514L410.589 255.51L409.383 253.32ZM464.263 249H466.763V246.5H464.263V249ZM459.623 350.12L457.535 348.744L457.524 348.761L457.513 348.778L459.623 350.12ZM446.663 360.68L445.704 358.371L445.686 358.379L445.667 358.387L446.663 360.68ZM481.543 329H479.043V331.5H481.543V329ZM481.543 317.64V315.14H479.043V317.64H481.543ZM484.103 319.24L481.708 319.958L481.754 320.11L481.818 320.255L484.103 319.24ZM484.103 327.4L481.781 326.472L481.74 326.575L481.708 326.682L484.103 327.4ZM466.763 329V317.64H461.763V329H466.763ZM464.263 320.14H481.543V315.14H464.263V320.14ZM479.043 317.64V329H484.043V317.64H479.043ZM481.543 326.5H464.263V331.5H481.543V326.5ZM426.343 361.86C422.751 361.86 418.876 361.552 414.713 360.928L413.972 365.872C418.343 366.528 422.468 366.86 426.343 366.86V361.86ZM414.66 360.92C410.581 360.397 406.063 359.61 401.103 358.555L400.062 363.445C405.128 364.523 409.784 365.336 414.025 365.88L414.66 360.92ZM403.038 361.468L404.958 351.388L400.047 350.452L398.127 360.532L403.038 361.468ZM402.175 353.398C407.849 354.148 412.584 354.686 416.369 355.011L416.796 350.029C413.115 349.714 408.463 349.185 402.83 348.442L402.175 353.398ZM416.375 355.011C420.256 355.335 423.584 355.5 426.343 355.5V350.5C423.768 350.5 420.589 350.345 416.79 350.029L416.375 355.011ZM426.343 355.5C435.421 355.5 442.592 353.768 447.313 349.792L444.092 345.968C440.706 348.819 434.971 350.5 426.343 350.5V355.5ZM447.283 349.817C452.048 345.93 454.283 340.286 454.283 333.32H449.283C449.283 339.154 447.464 343.217 444.122 345.943L447.283 349.817ZM454.283 333.32V256.2H449.283V333.32H454.283ZM450.42 258.296L456.82 262.456L459.545 258.264L453.145 254.104L450.42 258.296ZM458.183 257.86H431.143V262.86H458.183V257.86ZM431.143 257.86C424.809 257.86 419.612 258.616 415.74 260.31L417.745 264.89C420.7 263.597 425.102 262.86 431.143 262.86V257.86ZM415.714 260.322C411.623 262.169 408.918 265.649 407.473 270.345L412.252 271.815C413.367 268.191 415.249 266.018 417.771 264.878L415.714 260.322ZM407.479 270.327C406.082 274.75 405.443 281.03 405.443 289H410.443C410.443 281.183 411.083 275.516 412.246 271.833L407.479 270.327ZM405.443 289C405.443 296.975 406.083 303.297 407.473 307.815L412.252 306.345C411.082 302.543 410.443 296.812 410.443 289H405.443ZM407.479 307.833C408.932 312.437 411.646 315.841 415.714 317.678L417.771 313.122C415.226 311.972 413.353 309.83 412.246 306.327L407.479 307.833ZM415.74 317.69C419.612 319.384 424.809 320.14 431.143 320.14V315.14C425.102 315.14 420.7 314.403 417.745 313.11L415.74 317.69ZM431.143 320.14H451.783V315.14H431.143V320.14ZM449.283 317.64V329H454.283V317.64H449.283ZM451.783 326.5H431.143V331.5H451.783V326.5ZM431.143 326.5C422.061 326.5 415.272 325.135 410.554 322.632L408.211 327.048C413.947 330.092 421.664 331.5 431.143 331.5V326.5ZM410.608 322.661C406.043 320.093 402.795 316.209 400.852 310.866L396.153 312.574C398.477 318.965 402.482 323.827 408.157 327.019L410.608 322.661ZM400.87 310.917C398.961 305.291 397.963 298.013 397.963 289H392.963C392.963 298.334 393.991 306.203 396.135 312.523L400.87 310.917ZM397.963 289C397.963 279.985 398.962 272.767 400.865 267.256L396.14 265.624C393.99 271.846 392.963 279.669 392.963 289H397.963ZM400.857 267.281C402.803 261.832 406.045 257.971 410.573 255.518L408.192 251.122C402.48 254.216 398.469 259.102 396.148 265.599L400.857 267.281ZM410.589 255.51C415.296 252.916 422.072 251.5 431.143 251.5V246.5C421.653 246.5 413.922 247.964 408.176 251.13L410.589 255.51ZM431.143 251.5H464.263V246.5H431.143V251.5ZM461.763 249V333.16H466.763V249H461.763ZM461.763 333.16C461.763 339.372 460.315 344.527 457.535 348.744L461.71 351.496C465.117 346.326 466.763 340.174 466.763 333.16H461.763ZM457.513 348.778C454.83 352.995 450.933 356.2 445.704 358.371L447.621 362.989C453.698 360.466 458.442 356.631 461.732 351.462L457.513 348.778ZM445.667 358.387C440.403 360.671 433.986 361.86 426.343 361.86V366.86C434.486 366.86 441.615 365.596 447.658 362.973L445.667 358.387ZM484.043 329V317.64H479.043V329H484.043ZM481.543 320.14C481.732 320.14 481.847 320.159 481.903 320.172C481.957 320.185 481.945 320.19 481.898 320.16C481.846 320.128 481.79 320.078 481.746 320.018C481.705 319.962 481.7 319.932 481.708 319.958L486.497 318.522C486.183 317.473 485.545 316.544 484.547 315.92C483.6 315.328 482.534 315.14 481.543 315.14V320.14ZM481.818 320.255C482.041 320.757 482.243 321.691 482.243 323.24H487.243C487.243 321.376 487.017 319.643 486.387 318.225L481.818 320.255ZM482.243 323.24C482.243 324.769 482.047 325.807 481.781 326.472L486.424 328.328C487.011 326.86 487.243 325.125 487.243 323.24H482.243ZM481.708 326.682C481.7 326.708 481.705 326.678 481.746 326.622C481.79 326.562 481.846 326.512 481.898 326.48C481.945 326.45 481.957 326.455 481.903 326.468C481.847 326.481 481.732 326.5 481.543 326.5V331.5C482.534 331.5 483.6 331.312 484.547 330.72C485.545 330.096 486.183 329.167 486.497 328.118L481.708 326.682ZM569.563 329H567.063V331.5H569.563V329ZM569.563 317.64V315.14H567.063V317.64H569.563ZM586.843 317.64H589.343V315.14H586.843V317.64ZM586.843 329V331.5H589.343V329H586.843ZM481.562 329H479.062V331.5H481.562V329ZM481.562 317.64V315.14H479.062V317.64H481.562ZM561.562 317.64L563.228 319.505L568.116 315.14H561.562V317.64ZM557.083 321.64H554.583V327.224L558.748 323.505L557.083 321.64ZM554.683 278.92L552.352 279.826L552.368 279.866L552.385 279.905L554.683 278.92ZM547.803 270.44L546.451 272.543L546.494 272.571L546.538 272.597L547.803 270.44ZM501.562 267.56L499.479 268.941L500.22 270.06H501.562V267.56ZM492.443 253.8L490.223 252.65L489.546 253.956L490.359 255.181L492.443 253.8ZM499.323 240.52L497.128 239.323L497.115 239.346L497.103 239.37L499.323 240.52ZM503.323 233.32L505.499 234.55L505.499 234.55L503.323 233.32ZM508.443 224.84L510.555 226.178L510.555 226.178L508.443 224.84ZM516.123 213.16L517.409 211.016L515.376 209.796L514.05 211.762L516.123 213.16ZM526.523 219.4L528.61 220.776L530.045 218.598L527.809 217.256L526.523 219.4ZM519.003 231.08L516.878 229.762L516.878 229.762L519.003 231.08ZM514.043 239.08L511.917 237.764L511.894 237.801L511.872 237.84L514.043 239.08ZM510.363 245.8L508.148 244.64L508.145 244.645L510.363 245.8ZM502.363 261.16L500.262 262.515L502.593 266.129L504.58 262.315L502.363 261.16ZM499.163 256.2V253.7H494.574L497.062 257.555L499.163 256.2ZM552.923 259.72L551.718 261.911L551.75 261.928L551.783 261.945L552.923 259.72ZM563.003 268.68L560.886 270.01L560.899 270.032L560.913 270.053L563.003 268.68ZM568.123 280.84L565.681 281.376L565.683 281.389L568.123 280.84ZM569.563 329V331.5H572.063V329H569.563ZM481.562 329V331.5H484.062V329H481.562ZM479.002 327.4L481.397 326.682L481.365 326.575L481.324 326.472L479.002 327.4ZM479.002 319.24L481.287 320.255L481.351 320.11L481.397 319.958L479.002 319.24ZM481.562 317.64H484.062V315.14H481.562V317.64ZM586.843 329H584.343V331.5H586.843V329ZM586.843 317.64V315.14H584.343V317.64H586.843ZM589.403 319.24L587.008 319.958L587.054 320.11L587.118 320.255L589.403 319.24ZM589.403 327.4L587.081 326.472L587.04 326.575L587.008 326.682L589.403 327.4ZM572.063 329V317.64H567.063V329H572.063ZM569.563 320.14H586.843V315.14H569.563V320.14ZM584.343 317.64V329H589.343V317.64H584.343ZM586.843 326.5H569.563V331.5H586.843V326.5ZM484.062 329V317.64H479.062V329H484.062ZM481.562 320.14H561.562V315.14H481.562V320.14ZM559.897 315.775L555.417 319.775L558.748 323.505L563.228 319.505L559.897 315.775ZM559.583 321.64V293.16H554.583V321.64H559.583ZM559.583 293.16C559.583 287.193 558.757 282.081 556.98 277.935L552.385 279.905C553.808 283.226 554.583 287.607 554.583 293.16H559.583ZM557.013 278.014C555.347 273.731 552.717 270.423 549.067 268.283L546.538 272.597C549.075 274.084 551.031 276.429 552.352 279.826L557.013 278.014ZM549.154 268.337C545.662 266.092 541.37 265.06 536.443 265.06V270.06C540.688 270.06 543.969 270.948 546.451 272.543L549.154 268.337ZM536.443 265.06H501.562V270.06H536.443V265.06ZM503.646 266.179L494.526 252.419L490.359 255.181L499.479 268.941L503.646 266.179ZM494.662 254.95L501.542 241.67L497.103 239.37L490.223 252.65L494.662 254.95ZM501.517 241.717C502.791 239.382 504.118 236.993 505.499 234.55L501.146 232.09C499.754 234.554 498.414 236.965 497.128 239.323L501.517 241.717ZM505.499 234.55C506.859 232.143 508.543 229.353 510.555 226.178L506.33 223.502C504.288 226.727 502.559 229.59 501.146 232.09L505.499 234.55ZM510.555 226.178C512.564 223.005 515.11 219.133 518.195 214.558L514.05 211.762C510.949 216.361 508.374 220.275 506.33 223.502L510.555 226.178ZM514.836 215.304L525.236 221.544L527.809 217.256L517.409 211.016L514.836 215.304ZM524.435 218.024C521.335 222.728 518.815 226.642 516.878 229.762L521.127 232.398C523.03 229.332 525.523 225.459 528.61 220.776L524.435 218.024ZM516.878 229.762C514.958 232.855 513.304 235.523 511.917 237.764L516.168 240.396C517.554 238.157 519.207 235.491 521.127 232.398L516.878 229.762ZM511.872 237.84C510.577 240.106 509.336 242.372 508.148 244.64L512.577 246.96C513.736 244.748 514.948 242.534 516.213 240.32L511.872 237.84ZM508.145 244.645L500.145 260.005L504.58 262.315L512.58 246.955L508.145 244.645ZM504.463 259.805L501.263 254.845L497.062 257.555L500.262 262.515L504.463 259.805ZM499.163 258.7H536.443V253.7H499.163V258.7ZM536.443 258.7C542.894 258.7 547.934 259.829 551.718 261.911L554.127 257.529C549.378 254.917 543.431 253.7 536.443 253.7V258.7ZM551.783 261.945C555.803 264.004 558.805 266.7 560.886 270.01L565.119 267.35C562.507 263.193 558.789 259.916 554.062 257.495L551.783 261.945ZM560.913 270.053C563.199 273.531 564.786 277.3 565.681 281.376L570.564 280.304C569.539 275.633 567.713 271.296 565.092 267.307L560.913 270.053ZM565.683 281.389C566.607 285.494 567.063 289.417 567.063 293.16H572.063C572.063 289.01 571.558 284.719 570.562 280.291L565.683 281.389ZM567.063 293.16V329H572.063V293.16H567.063ZM569.563 326.5H481.562V331.5H569.563V326.5ZM481.562 326.5C481.373 326.5 481.258 326.481 481.202 326.468C481.148 326.455 481.16 326.45 481.207 326.48C481.259 326.512 481.315 326.562 481.359 326.622C481.4 326.678 481.405 326.708 481.397 326.682L476.608 328.118C476.922 329.167 477.56 330.096 478.558 330.72C479.505 331.312 480.571 331.5 481.562 331.5V326.5ZM481.324 326.472C481.058 325.807 480.862 324.769 480.862 323.24H475.862C475.862 325.125 476.094 326.86 476.681 328.328L481.324 326.472ZM480.862 323.24C480.862 321.691 481.064 320.757 481.287 320.255L476.718 318.225C476.088 319.643 475.862 321.376 475.862 323.24H480.862ZM481.397 319.958C481.405 319.932 481.4 319.962 481.359 320.018C481.315 320.078 481.259 320.128 481.207 320.16C481.16 320.19 481.148 320.185 481.202 320.172C481.258 320.159 481.373 320.14 481.562 320.14V315.14C480.571 315.14 479.505 315.328 478.558 315.92C477.56 316.544 476.922 317.473 476.608 318.522L481.397 319.958ZM479.062 317.64V329H484.062V317.64H479.062ZM589.343 329V317.64H584.343V329H589.343ZM586.843 320.14C587.032 320.14 587.147 320.159 587.203 320.172C587.257 320.185 587.245 320.19 587.198 320.16C587.146 320.128 587.09 320.078 587.046 320.018C587.005 319.962 587 319.932 587.008 319.958L591.797 318.522C591.483 317.473 590.845 316.544 589.848 315.92C588.9 315.328 587.834 315.14 586.843 315.14V320.14ZM587.118 320.255C587.341 320.757 587.543 321.691 587.543 323.24H592.543C592.543 321.376 592.317 319.643 591.687 318.225L587.118 320.255ZM587.543 323.24C587.543 324.769 587.347 325.807 587.081 326.472L591.724 328.328C592.311 326.86 592.543 325.125 592.543 323.24H587.543ZM587.008 326.682C587 326.708 587.005 326.678 587.046 326.622C587.09 326.562 587.146 326.512 587.198 326.48C587.245 326.45 587.257 326.455 587.203 326.468C587.147 326.481 587.032 326.5 586.843 326.5V331.5C587.834 331.5 588.9 331.312 589.848 330.72C590.845 330.096 591.483 329.167 591.797 328.118L587.008 326.682ZM616.635 329H614.135V331.5H616.635V329ZM616.635 317.64V315.14H614.135V317.64H616.635ZM633.915 317.64H636.415V315.14H633.915V317.64ZM633.915 329V331.5H636.415V329H633.915ZM633.915 329H631.415V331.5H633.915V329ZM633.915 317.64V315.14H631.415V317.64H633.915ZM636.475 319.24L634.08 319.958L634.126 320.11L634.19 320.255L636.475 319.24ZM636.475 327.4L634.154 326.472L634.112 326.575L634.08 326.682L636.475 327.4ZM586.875 329H584.375V331.5H586.875V329ZM586.875 317.64V315.14H584.375V317.64H586.875ZM609.915 317.64L611.483 319.587L617.004 315.14H609.915V317.64ZM604.155 322.28H601.655V327.504L605.723 324.227L604.155 322.28ZM604.155 249V246.5H601.655V249H604.155ZM616.635 249H619.135V246.5H616.635V249ZM616.635 329V331.5H619.135V329H616.635ZM586.875 329V331.5H589.375V329H586.875ZM584.315 327.4L586.71 326.682L586.678 326.575L586.636 326.472L584.315 327.4ZM584.315 319.24L586.6 320.255L586.664 320.11L586.71 319.958L584.315 319.24ZM586.875 317.64H589.375V315.14H586.875V317.64ZM593.275 234.6H590.775V237.1H593.275V234.6ZM593.275 220.2V217.7H590.775V220.2H593.275ZM605.755 220.2H608.255V217.7H605.755V220.2ZM605.755 234.6V237.1H608.255V234.6H605.755ZM615.195 234.6H612.695V237.1H615.195V234.6ZM615.195 220.2V217.7H612.695V220.2H615.195ZM627.675 220.2H630.175V217.7H627.675V220.2ZM627.675 234.6V237.1H630.175V234.6H627.675ZM619.135 329V317.64H614.135V329H619.135ZM616.635 320.14H633.915V315.14H616.635V320.14ZM631.415 317.64V329H636.415V317.64H631.415ZM633.915 326.5H616.635V331.5H633.915V326.5ZM636.415 329V317.64H631.415V329H636.415ZM633.915 320.14C634.105 320.14 634.22 320.159 634.276 320.172C634.329 320.185 634.317 320.19 634.27 320.16C634.218 320.128 634.163 320.078 634.119 320.018C634.078 319.962 634.072 319.932 634.08 319.958L638.87 318.522C638.555 317.473 637.918 316.544 636.92 315.92C635.973 315.328 634.906 315.14 633.915 315.14V320.14ZM634.19 320.255C634.414 320.757 634.615 321.691 634.615 323.24H639.615C639.615 321.376 639.39 319.643 638.76 318.225L634.19 320.255ZM634.615 323.24C634.615 324.769 634.42 325.807 634.154 326.472L638.796 328.328C639.384 326.86 639.615 325.125 639.615 323.24H634.615ZM634.08 326.682C634.072 326.708 634.078 326.678 634.119 326.622C634.163 326.562 634.218 326.512 634.27 326.48C634.317 326.45 634.329 326.455 634.276 326.468C634.22 326.481 634.105 326.5 633.915 326.5V331.5C634.906 331.5 635.973 331.312 636.92 330.72C637.918 330.096 638.555 329.167 638.87 328.118L634.08 326.682ZM589.375 329V317.64H584.375V329H589.375ZM586.875 320.14H609.915V315.14H586.875V320.14ZM608.347 315.693L602.587 320.333L605.723 324.227L611.483 319.587L608.347 315.693ZM606.655 322.28V249H601.655V322.28H606.655ZM604.155 251.5H616.635V246.5H604.155V251.5ZM614.135 249V329H619.135V249H614.135ZM616.635 326.5H586.875V331.5H616.635V326.5ZM586.875 326.5C586.685 326.5 586.57 326.481 586.514 326.468C586.461 326.455 586.473 326.45 586.52 326.48C586.572 326.512 586.627 326.562 586.671 326.622C586.712 326.678 586.718 326.708 586.71 326.682L581.92 328.118C582.235 329.167 582.872 330.096 583.87 330.72C584.817 331.312 585.884 331.5 586.875 331.5V326.5ZM586.636 326.472C586.37 325.807 586.175 324.769 586.175 323.24H581.175C581.175 325.125 581.406 326.86 581.994 328.328L586.636 326.472ZM586.175 323.24C586.175 321.691 586.376 320.757 586.6 320.255L582.03 318.225C581.4 319.643 581.175 321.376 581.175 323.24H586.175ZM586.71 319.958C586.718 319.932 586.712 319.962 586.671 320.018C586.627 320.078 586.572 320.128 586.52 320.16C586.473 320.19 586.461 320.185 586.514 320.172C586.57 320.159 586.685 320.14 586.875 320.14V315.14C585.884 315.14 584.817 315.328 583.87 315.92C582.872 316.544 582.235 317.473 581.92 318.522L586.71 319.958ZM584.375 317.64V329H589.375V317.64H584.375ZM595.775 234.6V220.2H590.775V234.6H595.775ZM593.275 222.7H605.755V217.7H593.275V222.7ZM603.255 220.2V234.6H608.255V220.2H603.255ZM605.755 232.1H593.275V237.1H605.755V232.1ZM617.695 234.6V220.2H612.695V234.6H617.695ZM615.195 222.7H627.675V217.7H615.195V222.7ZM625.175 220.2V234.6H630.175V220.2H625.175ZM627.675 232.1H615.195V237.1H627.675V232.1ZM633.906 329H631.406V331.5H633.906V329ZM633.906 317.64V315.14H631.406V317.64H633.906ZM656.946 317.64L658.515 319.587L664.035 315.14H656.946V317.64ZM651.186 322.28H648.686V327.504L652.755 324.227L651.186 322.28ZM651.186 249V246.5H648.686V249H651.186ZM663.666 249H666.166V246.5H663.666V249ZM663.666 329V331.5H666.166V329H663.666ZM633.906 329V331.5H636.406V329H633.906ZM631.346 327.4L633.741 326.682L633.709 326.575L633.667 326.472L631.346 327.4ZM631.346 319.24L633.631 320.255L633.695 320.11L633.741 319.958L631.346 319.24ZM633.906 317.64H636.406V315.14H633.906V317.64ZM651.186 357.8H648.686V360.3H651.186V357.8ZM651.186 343.4V340.9H648.686V343.4H651.186ZM663.666 343.4H666.166V340.9H663.666V343.4ZM663.666 357.8V360.3H666.166V357.8H663.666ZM636.406 329V317.64H631.406V329H636.406ZM633.906 320.14H656.946V315.14H633.906V320.14ZM655.378 315.693L649.618 320.333L652.755 324.227L658.515 319.587L655.378 315.693ZM653.686 322.28V249H648.686V322.28H653.686ZM651.186 251.5H663.666V246.5H651.186V251.5ZM661.166 249V329H666.166V249H661.166ZM663.666 326.5H633.906V331.5H663.666V326.5ZM633.906 326.5C633.716 326.5 633.602 326.481 633.545 326.468C633.492 326.455 633.504 326.45 633.551 326.48C633.603 326.512 633.659 326.562 633.702 326.622C633.744 326.678 633.749 326.708 633.741 326.682L628.952 328.118C629.266 329.167 629.904 330.096 630.901 330.72C631.849 331.312 632.915 331.5 633.906 331.5V326.5ZM633.667 326.472C633.402 325.807 633.206 324.769 633.206 323.24H628.206C628.206 325.125 628.438 326.86 629.025 328.328L633.667 326.472ZM633.206 323.24C633.206 321.691 633.408 320.757 633.631 320.255L629.062 318.225C628.431 319.643 628.206 321.376 628.206 323.24H633.206ZM633.741 319.958C633.749 319.932 633.744 319.962 633.702 320.018C633.659 320.078 633.603 320.128 633.551 320.16C633.504 320.19 633.492 320.185 633.545 320.172C633.602 320.159 633.716 320.14 633.906 320.14V315.14C632.915 315.14 631.849 315.328 630.901 315.92C629.904 316.544 629.266 317.473 628.952 318.522L633.741 319.958ZM631.406 317.64V329H636.406V317.64H631.406ZM653.686 357.8V343.4H648.686V357.8H653.686ZM651.186 345.9H663.666V340.9H651.186V345.9ZM661.166 343.4V357.8H666.166V343.4H661.166ZM663.666 355.3H651.186V360.3H663.666V355.3Z" fill="white"/>
</svg>
