<svg width="257" height="147" viewBox="0 0 257 147" fill="none" xmlns="http://www.w3.org/2000/svg">
<path d="M73.3829 0C71.3596 0 69.3559 0.081677 67.3719 0.24501H79.393C77.4103 0.0843437 75.4069 0.00266667 73.3829 0Z" fill="#1D1D1B"/>
<path d="M128.335 24.76C127.935 25.272 127.552 25.794 127.166 26.316C127.573 25.825 127.991 25.335 128.419 24.854C128.387 24.82 128.366 24.789 128.335 24.76ZM127.135 120.416C127.535 120.948 127.928 121.481 128.335 122.003C128.366 121.972 128.387 121.94 128.419 121.909C127.98 121.416 127.552 120.915 127.134 120.413L127.135 120.416ZM122.552 18.743C110.578 8.01854 95.4151 1.51943 79.391 0.242981H67.373C29.662 3.27198 0 34.543 0 72.672C0 110.801 29.672 142.092 67.4 145.101H79.354C95.3917 143.841 110.57 137.34 122.547 126.601C110.282 111.302 103.597 92.2784 103.597 72.6695C103.597 53.0605 110.282 34.0373 122.547 18.738L122.552 18.743ZM97.003 102.605C93.777 105.097 89.559 106.679 84.38 107.372V122.137H75.913V107.796H63.865V122.137H55.393V107.796H43.025V99.349L50.584 97.901V47.433L43.025 45.985V37.485H55.393V23.205H63.86V37.485H74.572C75 37.485 75.397 37.506 75.814 37.516H75.908V23.207H84.375V38.417C87.853 39.0535 91.1684 40.3795 94.126 42.317C98.8033 45.533 101.142 50.3443 101.142 56.751C101.19 59.8557 100.278 62.8994 98.532 65.467C96.6657 68.133 94.0168 70.1528 90.952 71.247C94.7704 71.8781 98.2009 73.9506 100.536 77.037C101.248 78.0174 101.847 79.0755 102.321 80.191C102.455 80.481 102.573 80.7777 102.676 81.08C103.39 83.0838 103.747 85.1977 103.73 87.325C103.761 89.7656 103.406 92.1958 102.676 94.525C102.342 95.5935 101.894 96.6231 101.34 97.596C100.256 99.5478 98.7797 101.253 97.003 102.605ZM127.134 120.413C127.534 120.945 127.927 121.478 128.334 122C128.365 121.969 128.386 121.937 128.418 121.906C127.98 121.416 127.552 120.915 127.134 120.413Z" fill="white"/>
<path d="M256.836 73.379C256.836 91.8054 249.904 109.557 237.416 123.107C224.929 136.657 207.801 145.013 189.436 146.515H177.478C158.551 144.99 140.958 136.165 128.418 121.907C129.942 120.184 131.394 118.378 132.751 116.507C141.579 126.898 153.384 134.329 166.57 137.797C179.757 141.265 193.69 140.603 206.488 135.9C219.286 131.198 230.333 122.681 238.137 111.499C245.94 100.318 250.124 87.0119 250.124 73.377C250.124 59.7421 245.94 46.4356 238.137 35.2545C230.333 24.0734 219.286 15.5564 206.488 10.8536C193.69 6.15074 179.757 5.4887 166.57 8.95683C153.384 12.425 141.579 19.8562 132.751 30.247C131.394 28.378 129.943 26.582 128.418 24.847C140.955 10.601 158.533 1.77857 177.447 0.239014H189.464C207.824 1.74805 224.946 10.1078 237.427 23.6577C249.909 37.2077 256.837 54.9566 256.836 73.379V73.379Z" fill="white"/>
<path d="M183.457 0C181.432 0 179.429 0.081677 177.447 0.24501H189.466C187.483 0.0843437 185.48 0.00266667 183.457 0Z" fill="white"/>
<path d="M111.703 73.379C111.688 90.3037 117.097 106.788 127.137 120.413C116.11 107.213 110.071 90.5575 110.077 73.3574C110.083 56.1572 116.132 39.5059 127.168 26.313C117.111 39.9432 111.69 56.4398 111.703 73.379V73.379Z" fill="white"/>
<path d="M102.679 15.329H33.052V128.234H102.679V15.329Z" fill="white"/>
<path d="M73.382 146.761C75.396 146.761 77.39 146.676 79.363 146.518H67.401C69.374 146.677 71.368 146.761 73.382 146.761Z" fill="#1D1D1B"/>
<path d="M132.753 116.507C141.859 103.971 146.763 88.8749 146.763 73.381C146.763 57.8871 141.859 42.7908 132.753 30.255C122.487 42.279 116.847 57.5707 116.847 73.381C116.847 89.1913 122.487 104.483 132.753 116.507Z" fill="white"/>
<path d="M79.014 77.444H64.828V97.923H77.944C81.7153 97.923 84.592 97.1023 86.574 95.461C88.556 93.8196 89.5477 91.3896 89.549 88.171C89.549 84.6923 88.704 82.0346 87.014 80.198C85.324 78.3613 82.6573 77.4433 79.014 77.444Z" fill="white"/>
<path d="M83.841 65.2531C84.8673 64.4486 85.683 63.4071 86.2181 62.218C86.7531 61.0289 86.9916 59.7277 86.913 58.4261C86.913 55.1434 85.8797 52.722 83.813 51.162C81.7463 49.602 78.6663 48.8217 74.573 48.821H64.828V67.5941H75.067C78.8683 67.5941 81.793 66.8137 83.841 65.2531Z" fill="white"/>
<path d="M183.456 146.761C185.47 146.761 187.464 146.676 189.436 146.518H177.475C179.448 146.677 181.442 146.761 183.456 146.761Z" fill="white"/>
<path d="M116.85 73.38C116.836 89.1929 122.476 104.49 132.75 116.51C131.393 118.379 129.942 120.185 128.417 121.91C127.979 121.419 127.55 120.918 127.133 120.417C116.106 107.217 110.067 90.5615 110.073 73.3614C110.079 56.1612 116.128 39.5099 127.164 26.317C127.571 25.826 127.989 25.336 128.417 24.855C129.941 26.588 131.393 28.384 132.75 30.255C122.478 42.2749 116.84 57.5692 116.85 73.38V73.38Z" fill="white"/>
<path d="M104.618 88.66L103.736 84.551L103.187 80.811L99.9091 81.411L99.17 98.864L103.736 98.171L104.618 88.66Z" fill="white"/>
<path d="M155.234 25.214L145.534 40.214L175.169 86.037V128.886L191.734 103.267V81.176L155.234 25.214Z" fill="white"/>
<path d="M211.675 25.214L193.247 53.468L203.065 68.521L221.375 40.208L211.675 25.214Z" fill="white"/>
<path d="M91.981 77.785C89.66 74.6776 86.2313 72.5836 82.407 71.938C85.4756 70.8219 88.1234 68.7833 89.987 66.102C91.73 63.5016 92.6404 60.4323 92.597 57.302C92.597 50.8393 90.255 45.981 85.571 42.727C82.6191 40.7713 79.3023 39.4325 75.82 38.791V23.432H67.348V37.882C66.91 37.871 66.471 37.851 66.012 37.851H55.304V23.432H46.837V37.85H34.475V46.432L42.034 47.894V98.854L34.475 100.316V108.846H46.837V123.327H55.304V108.846H67.348V123.327H75.815V108.418C80.3784 107.963 84.7386 106.302 88.448 103.605C92.9266 100.108 95.168 94.964 95.172 88.174C95.2422 84.4595 94.1242 80.8196 91.981 77.785V77.785ZM56.264 48.823H66.015C70.1183 48.823 73.1983 49.6027 75.255 51.162C77.3216 52.7173 78.355 55.1397 78.355 58.429C78.4324 59.7304 78.1937 61.0312 77.6591 62.2203C77.1244 63.4093 76.3099 64.4512 75.285 65.257C73.239 66.813 70.305 67.596 66.505 67.596H56.264V48.823ZM56.264 97.923V77.439H70.453C74.097 77.439 76.7636 78.3577 78.453 80.195C80.1423 82.0323 80.988 84.6913 80.99 88.172C80.99 91.388 79.998 93.817 78.014 95.459C76.03 97.101 73.1553 97.9223 69.39 97.923H56.264Z" fill="#4ADE80"/>
</svg>
